# xmcd
#
# Track frame offsets:
#	150
#	21197
#	46762
#	61780
#	82445
#	101867
#	112922
#	144372
#	161685
#	198207
#	227220
#	242485
#	257675
#	277165
#	308500
#
# Disc length: 4201 seconds
#
# Revision: 1
# Processed by: cddbd v1.4PL0 Copyright (c) Steve Scherf et al.
# Submitted via: audiograbber 1.80
#
DISCID=c810670f
DTITLE=Karl Williams - Frome One Millenium To Another
DYEAR=1900
DGENRE=
TTITLE0=Murphy
TTITLE1=Numbers
TTITLE2=Kids
TTITLE3=Johnny Love
TTITLE4=For Mr. Wizard
TTITLE5=Mr. Chaz
TTITLE6=Pammy's Song
TTITLE7=Satellite
TTITLE8=The Fire in Townsend Burns
TTITLE9=Gypsy Lady
TTITLE10=Here I Am
TTITLE11=Anything Could Happen
TTITLE12=To The New Century
TTITLE13=The Show
TTITLE14=Outro
EXTD=
EXTT0=
EXTT1=
EXTT2=
EXTT3=
EXTT4=
EXTT5=
EXTT6=
EXTT7=
EXTT8=
EXTT9=
EXTT10=
EXTT11=
EXTT12=
EXTT13=
EXTT14=
PLAYORDER=
